@startuml

abstract class AbstractList
abstract AbstractCollection
interface List
interface Collection
interface HelloInter
abstract class HelloAbstract
class Hello
HelloInter <|-- HelloAbstract
HelloAbstract <|-- Hello

List <|-- AbstractList
Collection <|-- AbstractCollection

Collection <|- List
AbstractCollection <|- AbstractList
AbstractList <|-- ArrayList

class ArrayList {
Object[] elementData
size()
}

enum TimeUnit {
DAYS
HOURS
MINUTES
}

@enduml